<svg width="76" height="30" viewBox="0 0 76 30" fill="none" xmlns="http://www.w3.org/2000/svg">
<g clip-path="url(#clip0_143_8)">
<rect x="1" y="1" width="74" height="28" fill="#F0F6FC"/>
<rect x="1" y="1" width="74" height="28" fill="#F0F6FC"/>
<path d="M37.6804 19V10.2727H41.1747C41.8168 10.2727 42.3523 10.3679 42.7812 10.5582C43.2102 10.7486 43.5327 11.0128 43.7486 11.3509C43.9645 11.6861 44.0724 12.0724 44.0724 12.5099C44.0724 12.8509 44.0043 13.1506 43.8679 13.4091C43.7315 13.6648 43.544 13.875 43.3054 14.0398C43.0696 14.2017 42.7997 14.3168 42.4957 14.3849V14.4702C42.8281 14.4844 43.1392 14.5781 43.429 14.7514C43.7216 14.9247 43.9588 15.1676 44.1406 15.4801C44.3224 15.7898 44.4134 16.1591 44.4134 16.5881C44.4134 17.0511 44.2983 17.4645 44.0682 17.8281C43.8409 18.1889 43.5043 18.4744 43.0582 18.6847C42.6122 18.8949 42.0625 19 41.4091 19H37.6804ZM39.5256 17.4915H41.0298C41.544 17.4915 41.919 17.3935 42.1548 17.1974C42.3906 16.9986 42.5085 16.7344 42.5085 16.4048C42.5085 16.1634 42.4503 15.9503 42.3338 15.7656C42.2173 15.581 42.0511 15.4361 41.8352 15.331C41.6222 15.2259 41.3679 15.1733 41.0724 15.1733H39.5256V17.4915ZM39.5256 13.9247H40.8935C41.1463 13.9247 41.3707 13.8807 41.5668 13.7926C41.7656 13.7017 41.9219 13.5739 42.0355 13.4091C42.152 13.2443 42.2102 13.0469 42.2102 12.8168C42.2102 12.5014 42.098 12.2472 41.8736 12.054C41.652 11.8608 41.3366 11.7642 40.9276 11.7642H39.5256V13.9247ZM47.3952 10.2727V19H45.5799V10.2727H47.3952ZM51.8068 19.1278C51.1449 19.1278 50.5724 18.9872 50.0895 18.706C49.6094 18.4219 49.2386 18.027 48.9773 17.5213C48.7159 17.0128 48.5852 16.4233 48.5852 15.7528C48.5852 15.0767 48.7159 14.4858 48.9773 13.9801C49.2386 13.4716 49.6094 13.0767 50.0895 12.7955C50.5724 12.5114 51.1449 12.3693 51.8068 12.3693C52.4688 12.3693 53.0398 12.5114 53.5199 12.7955C54.0028 13.0767 54.375 13.4716 54.6364 13.9801C54.8977 14.4858 55.0284 15.0767 55.0284 15.7528C55.0284 16.4233 54.8977 17.0128 54.6364 17.5213C54.375 18.027 54.0028 18.4219 53.5199 18.706C53.0398 18.9872 52.4688 19.1278 51.8068 19.1278ZM51.8153 17.7216C52.1165 17.7216 52.3679 17.6364 52.5696 17.4659C52.7713 17.2926 52.9233 17.0568 53.0256 16.7585C53.1307 16.4602 53.1832 16.1207 53.1832 15.7401C53.1832 15.3594 53.1307 15.0199 53.0256 14.7216C52.9233 14.4233 52.7713 14.1875 52.5696 14.0142C52.3679 13.8409 52.1165 13.7543 51.8153 13.7543C51.5114 13.7543 51.2557 13.8409 51.0483 14.0142C50.8438 14.1875 50.6889 14.4233 50.5838 14.7216C50.4815 15.0199 50.4304 15.3594 50.4304 15.7401C50.4304 16.1207 50.4815 16.4602 50.5838 16.7585C50.6889 17.0568 50.8438 17.2926 51.0483 17.4659C51.2557 17.6364 51.5114 17.7216 51.8153 17.7216ZM59.1577 21.5909C58.5696 21.5909 58.0653 21.5099 57.6449 21.348C57.2273 21.1889 56.8949 20.9716 56.6477 20.696C56.4006 20.4205 56.2401 20.1108 56.1662 19.767L57.8452 19.5412C57.8963 19.6719 57.9773 19.794 58.0881 19.9077C58.1989 20.0213 58.3452 20.1122 58.527 20.1804C58.7116 20.2514 58.9361 20.2869 59.2003 20.2869C59.5952 20.2869 59.9205 20.1903 60.1761 19.9972C60.4347 19.8068 60.5639 19.4872 60.5639 19.0384V17.8409H60.4872C60.4077 18.0227 60.2884 18.1946 60.1293 18.3565C59.9702 18.5185 59.7656 18.6506 59.5156 18.7528C59.2656 18.8551 58.9673 18.9062 58.6207 18.9062C58.1293 18.9062 57.6818 18.7926 57.2784 18.5653C56.8778 18.3352 56.5582 17.9844 56.3196 17.5128C56.0838 17.0384 55.9659 16.4389 55.9659 15.7145C55.9659 14.973 56.0866 14.3537 56.3281 13.8565C56.5696 13.3594 56.8906 12.9872 57.2912 12.7401C57.6946 12.4929 58.1364 12.3693 58.6165 12.3693C58.983 12.3693 59.2898 12.4318 59.5369 12.5568C59.7841 12.679 59.983 12.8324 60.1335 13.017C60.2869 13.1989 60.4048 13.3778 60.4872 13.554H60.5554V12.4545H62.358V19.0639C62.358 19.6207 62.2216 20.0866 61.9489 20.4616C61.6761 20.8366 61.2983 21.1179 60.8153 21.3054C60.3352 21.4957 59.7827 21.5909 59.1577 21.5909ZM59.196 17.5426C59.4886 17.5426 59.7358 17.4702 59.9375 17.3253C60.142 17.1776 60.2983 16.9673 60.4062 16.6946C60.517 16.419 60.5724 16.0895 60.5724 15.706C60.5724 15.3224 60.5185 14.9901 60.4105 14.7088C60.3026 14.4247 60.1463 14.2045 59.9418 14.0483C59.7372 13.892 59.4886 13.8139 59.196 13.8139C58.8977 13.8139 58.6463 13.8949 58.4418 14.0568C58.2372 14.2159 58.0824 14.4375 57.9773 14.7216C57.8722 15.0057 57.8196 15.3338 57.8196 15.706C57.8196 16.0838 57.8722 16.4105 57.9773 16.6861C58.0852 16.9588 58.2401 17.1705 58.4418 17.321C58.6463 17.4687 58.8977 17.5426 59.196 17.5426Z" fill="#0D1117"/>
<path d="M16.5615 9.61621L9.75684 24H4.94531L14.7461 5.51562H17.8184L16.5615 9.61621ZM17.7295 24L15.8506 9.17188L15.9521 5.51562H18.8467L22.2617 24H17.7295ZM18.7197 17.1064L18.1104 20.5469H8.88086L9.49023 17.1064H18.7197Z" fill="#0D1117"/>
</g>
<rect x="0.5" y="0.5" width="75" height="29" stroke="#0D1117"/>
<defs>
<clipPath id="clip0_143_8">
<rect x="1" y="1" width="74" height="28" fill="white"/>
</clipPath>
</defs>
</svg>
